<svg width="570" height="123" viewBox="0 0 570 123" fill="none" xmlns="http://www.w3.org/2000/svg">
<rect width="570" height="123" fill="#F5F5F5"/>
<g clip-path="url(#clip0_0_1)">
<rect x="-720" y="-3337" width="1440" height="3460" fill="white"/>
<rect width="1440" height="600" transform="translate(-720 -476.475)" fill="#9DDCCD" fill-opacity="0.85"/>
<path d="M50.1451 83.0723C50.0954 82.6071 49.8859 82.2448 49.5165 81.9856C49.1508 81.7264 48.6749 81.5968 48.089 81.5968C47.677 81.5968 47.3237 81.6589 47.029 81.7832C46.7342 81.9075 46.5087 82.0762 46.3525 82.2892C46.1962 82.5023 46.1163 82.7456 46.1128 83.019C46.1128 83.2463 46.1643 83.4434 46.2672 83.6103C46.3738 83.7772 46.5176 83.9192 46.6987 84.0364C46.8798 84.15 47.0805 84.2459 47.3006 84.324C47.5208 84.4022 47.7427 84.4679 47.9665 84.5211L48.9892 84.7768C49.4011 84.8727 49.7971 85.0023 50.177 85.1657C50.5606 85.329 50.9033 85.535 51.2051 85.7836C51.5105 86.0321 51.752 86.3322 51.9295 86.6838C52.1071 87.0353 52.1959 87.4473 52.1959 87.9196C52.1959 88.5588 52.0325 89.1216 51.7058 89.6081C51.3791 90.0911 50.9068 90.4693 50.2889 90.7427C49.6746 91.0126 48.9306 91.1475 48.057 91.1475C47.2083 91.1475 46.4714 91.0162 45.8464 90.7534C45.225 90.4906 44.7385 90.1071 44.3869 89.6028C44.0389 89.0985 43.8507 88.4842 43.8223 87.7598H45.7665C45.7949 88.1397 45.9121 88.4558 46.1181 88.7079C46.3241 88.96 46.5922 89.1483 46.9224 89.2725C47.2562 89.3968 47.6291 89.459 48.041 89.459C48.4707 89.459 48.8471 89.3951 49.1703 89.2672C49.497 89.1358 49.7527 88.9547 49.9373 88.7239C50.122 88.4895 50.2161 88.2161 50.2197 87.9036C50.2161 87.6195 50.1327 87.3851 49.9693 87.2005C49.8059 87.0122 49.5769 86.856 49.2822 86.7317C48.991 86.6039 48.6501 86.4902 48.2594 86.3908L47.0183 86.0712C46.1199 85.8404 45.4096 85.4906 44.8876 85.0218C44.3692 84.5495 44.1099 83.9228 44.1099 83.1415C44.1099 82.4987 44.2839 81.9359 44.6319 81.4529C44.9835 80.97 45.4611 80.5953 46.0648 80.329C46.6685 80.0591 47.3521 79.9242 48.1156 79.9242C48.8898 79.9242 49.568 80.0591 50.1504 80.329C50.7363 80.5953 51.1962 80.9664 51.53 81.4423C51.8638 81.9146 52.0361 82.4579 52.0467 83.0723H50.1451ZM57.4946 91.1422C56.6743 91.1422 55.9658 90.9718 55.3693 90.6309C54.7762 90.2864 54.3199 89.7999 54.0003 89.1713C53.6807 88.5392 53.5209 87.7953 53.5209 86.9394C53.5209 86.0978 53.6807 85.3592 54.0003 84.7235C54.3234 84.0843 54.7744 83.5872 55.3533 83.2321C55.9321 82.8734 56.6122 82.6941 57.3934 82.6941C57.8977 82.6941 58.3735 82.7757 58.821 82.9391C59.272 83.0989 59.6697 83.3475 60.0141 83.6848C60.3622 84.0222 60.6356 84.4519 60.8345 84.9739C61.0333 85.4924 61.1328 86.1103 61.1328 86.8276V87.4189H54.4264V86.1191H59.2844C59.2808 85.7498 59.2009 85.4213 59.0447 85.1337C58.8884 84.8425 58.67 84.6135 58.3895 84.4465C58.1125 84.2796 57.7894 84.1962 57.42 84.1962C57.0259 84.1962 56.6796 84.2921 56.3813 84.4838C56.083 84.672 55.8504 84.9206 55.6835 85.2296C55.5202 85.535 55.4367 85.8706 55.4332 86.2363V87.3709C55.4332 87.8468 55.5202 88.2551 55.6942 88.5961C55.8682 88.9334 56.1114 89.1926 56.4239 89.3738C56.7364 89.5513 57.1022 89.6401 57.5212 89.6401C57.8018 89.6401 58.0557 89.601 58.283 89.5229C58.5102 89.4412 58.7073 89.3223 58.8742 89.166C59.0411 89.0098 59.1672 88.8162 59.2524 88.5854L61.0529 88.7878C60.9392 89.2637 60.7226 89.6792 60.403 90.0343C60.0869 90.3858 59.6821 90.6593 59.1885 90.8546C58.6949 91.0463 58.1303 91.1422 57.4946 91.1422ZM66.3862 91.1422C65.5659 91.1422 64.8575 90.9718 64.2609 90.6309C63.6678 90.2864 63.2115 89.7999 62.8919 89.1713C62.5723 88.5392 62.4125 87.7953 62.4125 86.9394C62.4125 86.0978 62.5723 85.3592 62.8919 84.7235C63.2151 84.0843 63.666 83.5872 64.2449 83.2321C64.8237 82.8734 65.5038 82.6941 66.285 82.6941C66.7893 82.6941 67.2651 82.7757 67.7126 82.9391C68.1636 83.0989 68.5613 83.3475 68.9058 83.6848C69.2538 84.0222 69.5272 84.4519 69.7261 84.9739C69.9249 85.4924 70.0244 86.1103 70.0244 86.8276V87.4189H63.318V86.1191H68.176C68.1724 85.7498 68.0925 85.4213 67.9363 85.1337C67.78 84.8425 67.5616 84.6135 67.2811 84.4465C67.0041 84.2796 66.681 84.1962 66.3116 84.1962C65.9175 84.1962 65.5712 84.2921 65.2729 84.4838C64.9746 84.672 64.742 84.9206 64.5751 85.2296C64.4118 85.535 64.3283 85.8706 64.3248 86.2363V87.3709C64.3248 87.8468 64.4118 88.2551 64.5858 88.5961C64.7598 88.9334 65.0031 89.1926 65.3156 89.3738C65.6281 89.5513 65.9938 89.6401 66.4129 89.6401C66.6934 89.6401 66.9473 89.601 67.1746 89.5229C67.4018 89.4412 67.5989 89.3223 67.7658 89.166C67.9327 89.0098 68.0588 88.8162 68.144 88.5854L69.9445 88.7878C69.8308 89.2637 69.6142 89.6792 69.2946 90.0343C68.9786 90.3858 68.5737 90.6593 68.0801 90.8546C67.5865 91.0463 67.0219 91.1422 66.3862 91.1422ZM75.3764 90.9824V82.8006H77.2194V84.1909H77.3153C77.4857 83.7221 77.7681 83.3563 78.1622 83.0936C78.5564 82.8272 79.0269 82.6941 79.5738 82.6941C80.1278 82.6941 80.5948 82.829 80.9747 83.0989C81.3583 83.3652 81.6282 83.7292 81.7844 84.1909H81.8696C82.0507 83.7363 82.3561 83.3741 82.7858 83.1042C83.2191 82.8308 83.7322 82.6941 84.3252 82.6941C85.0781 82.6941 85.6924 82.932 86.1683 83.4078C86.6441 83.8837 86.8821 84.5779 86.8821 85.4906V90.9824H84.9485V85.7889C84.9485 85.2811 84.8135 84.91 84.5436 84.6756C84.2738 84.4377 83.9435 84.3187 83.5529 84.3187C83.0877 84.3187 82.7237 84.4643 82.4609 84.7555C82.2017 85.0431 82.072 85.4178 82.072 85.8794V90.9824H80.1811V85.709C80.1811 85.2864 80.0532 84.949 79.7975 84.6969C79.5454 84.4448 79.2152 84.3187 78.8068 84.3187C78.5298 84.3187 78.2777 84.3897 78.0504 84.5318C77.8231 84.6703 77.642 84.8674 77.5071 85.123C77.3721 85.3752 77.3046 85.6699 77.3046 86.0073V90.9824H75.3764ZM92.4072 91.1422C91.6082 91.1422 90.9157 90.9664 90.3298 90.6149C89.7438 90.2633 89.2893 89.7715 88.9661 89.1394C88.6465 88.5073 88.4867 87.7686 88.4867 86.9235C88.4867 86.0783 88.6465 85.3379 88.9661 84.7022C89.2893 84.0666 89.7438 83.573 90.3298 83.2214C90.9157 82.8698 91.6082 82.6941 92.4072 82.6941C93.2062 82.6941 93.8987 82.8698 94.4846 83.2214C95.0705 83.573 95.5233 84.0666 95.8429 84.7022C96.1661 85.3379 96.3277 86.0783 96.3277 86.9235C96.3277 87.7686 96.1661 88.5073 95.8429 89.1394C95.5233 89.7715 95.0705 90.2633 94.4846 90.6149C93.8987 90.9664 93.2062 91.1422 92.4072 91.1422ZM92.4178 89.5975C92.8511 89.5975 93.2133 89.4785 93.5045 89.2406C93.7957 88.9991 94.0123 88.676 94.1544 88.2711C94.3 87.8663 94.3727 87.4153 94.3727 86.9181C94.3727 86.4174 94.3 85.9647 94.1544 85.5598C94.0123 85.1515 93.7957 84.8265 93.5045 84.585C93.2133 84.3436 92.8511 84.2228 92.4178 84.2228C91.974 84.2228 91.6046 84.3436 91.3099 84.585C91.0187 84.8265 90.8003 85.1515 90.6547 85.5598C90.5127 85.9647 90.4416 86.4174 90.4416 86.9181C90.4416 87.4153 90.5127 87.8663 90.6547 88.2711C90.8003 88.676 91.0187 88.9991 91.3099 89.2406C91.6046 89.4785 91.974 89.5975 92.4178 89.5975ZM97.9643 90.9824V82.8006H99.834V84.1642H99.9192C100.068 83.6919 100.324 83.3279 100.686 83.0723C101.052 82.813 101.469 82.6834 101.938 82.6834C102.045 82.6834 102.164 82.6887 102.295 82.6994C102.43 82.7065 102.542 82.7189 102.63 82.7367V84.5105C102.549 84.4821 102.419 84.4572 102.242 84.4359C102.068 84.411 101.899 84.3986 101.736 84.3986C101.384 84.3986 101.068 84.475 100.787 84.6277C100.51 84.7768 100.292 84.9845 100.132 85.2509C99.9724 85.5172 99.8925 85.8244 99.8925 86.1724V90.9824H97.9643ZM107.197 91.1422C106.376 91.1422 105.668 90.9718 105.071 90.6309C104.478 90.2864 104.022 89.7999 103.702 89.1713C103.383 88.5392 103.223 87.7953 103.223 86.9394C103.223 86.0978 103.383 85.3592 103.702 84.7235C104.026 84.0843 104.477 83.5872 105.055 83.2321C105.634 82.8734 106.314 82.6941 107.096 82.6941C107.6 82.6941 108.076 82.7757 108.523 82.9391C108.974 83.0989 109.372 83.3475 109.716 83.6848C110.064 84.0222 110.338 84.4519 110.537 84.9739C110.736 85.4924 110.835 86.1103 110.835 86.8276V87.4189H104.129V86.1191H108.987C108.983 85.7498 108.903 85.4213 108.747 85.1337C108.591 84.8425 108.372 84.6135 108.092 84.4465C107.815 84.2796 107.492 84.1962 107.122 84.1962C106.728 84.1962 106.382 84.2921 106.084 84.4838C105.785 84.672 105.553 84.9206 105.386 85.2296C105.222 85.535 105.139 85.8706 105.135 86.2363V87.3709C105.135 87.8468 105.222 88.2551 105.396 88.5961C105.57 88.9334 105.814 89.1926 106.126 89.3738C106.439 89.5513 106.804 89.6401 107.223 89.6401C107.504 89.6401 107.758 89.601 107.985 89.5229C108.212 89.4412 108.41 89.3223 108.576 89.166C108.743 89.0098 108.869 88.8162 108.955 88.5854L110.755 88.7878C110.641 89.2637 110.425 89.6792 110.105 90.0343C109.789 90.3858 109.384 90.6593 108.891 90.8546C108.397 91.0463 107.832 91.1422 107.197 91.1422ZM122.867 91.3766L121.769 90.2899L125.056 87.0034H117.071V85.416H125.056L121.769 82.1348L122.867 81.0428L128.034 86.2097L122.867 91.3766Z" fill="white"/>
<rect x="21.2096" y="69.3121" width="126.138" height="33.4501" rx="16.7251" stroke="white" stroke-width="1.55"/>
<path d="M26.6494 46.5293H21.2119L29.4971 22.5293H36.0361L44.3096 46.5293H38.8721L32.8604 28.0137H32.6729L26.6494 46.5293ZM26.3096 37.0957H39.1533V41.0566H26.3096V37.0957ZM52.0967 22.5293V46.5293H47.1045V22.5293H52.0967ZM61.0879 22.5293V46.5293H56.0957V22.5293H61.0879ZM73.2901 46.8809C71.4385 46.8809 69.8448 46.5059 68.5088 45.7559C67.1807 44.998 66.1573 43.9277 65.4385 42.5449C64.7198 41.1543 64.3604 39.5098 64.3604 37.6113C64.3604 35.7598 64.7198 34.1348 65.4385 32.7363C66.1573 31.3379 67.169 30.248 68.4737 29.4668C69.7862 28.6855 71.3252 28.2949 73.0909 28.2949C74.2784 28.2949 75.3838 28.4863 76.4073 28.8691C77.4385 29.2441 78.337 29.8105 79.1026 30.5683C79.876 31.3262 80.4776 32.2793 80.9073 33.4277C81.337 34.5683 81.5518 35.9043 81.5518 37.4355V38.8066H66.3526V35.7129H76.8526C76.8526 34.9941 76.6963 34.3574 76.3838 33.8027C76.0713 33.248 75.6378 32.8144 75.0831 32.5019C74.5362 32.1816 73.8995 32.0215 73.1729 32.0215C72.4151 32.0215 71.7432 32.1973 71.1573 32.5488C70.5792 32.8926 70.126 33.3574 69.7979 33.9433C69.4698 34.5215 69.3018 35.166 69.294 35.8769V38.8184C69.294 39.709 69.4581 40.4785 69.7862 41.1269C70.1221 41.7754 70.5948 42.2754 71.2042 42.6269C71.8135 42.9785 72.5362 43.1543 73.3721 43.1543C73.9268 43.1543 74.4346 43.0762 74.8956 42.9199C75.3565 42.7637 75.751 42.5293 76.0792 42.2168C76.4073 41.9043 76.6573 41.5215 76.8292 41.0684L81.4464 41.373C81.212 42.4824 80.7315 43.4512 80.0049 44.2793C79.2862 45.0996 78.3565 45.7402 77.2159 46.2012C76.0831 46.6543 74.7745 46.8809 73.2901 46.8809ZM84.8096 46.5293V28.5293H89.6495V31.6699H89.837C90.1651 30.5527 90.7159 29.709 91.4893 29.1387C92.2628 28.5605 93.1534 28.2715 94.1612 28.2715C94.4112 28.2715 94.6807 28.2871 94.9698 28.3183C95.2589 28.3496 95.5128 28.3926 95.7315 28.4472V32.8769C95.4971 32.8066 95.1729 32.7441 94.7589 32.6894C94.3448 32.6348 93.9659 32.6074 93.6221 32.6074C92.8878 32.6074 92.2315 32.7676 91.6534 33.0879C91.0831 33.4004 90.63 33.8379 90.294 34.4004C89.9659 34.9629 89.8018 35.6113 89.8018 36.3457V46.5293H84.8096ZM105.584 53.6543C103.967 53.6543 102.58 53.4316 101.424 52.9863C100.275 52.5488 99.3614 51.9512 98.6817 51.1934C98.002 50.4356 97.5606 49.584 97.3575 48.6387L101.975 48.0176C102.115 48.377 102.338 48.7129 102.643 49.0254C102.947 49.3379 103.35 49.5879 103.85 49.7754C104.358 49.9707 104.975 50.0684 105.701 50.0684C106.787 50.0684 107.682 49.8027 108.385 49.2715C109.096 48.748 109.451 47.8691 109.451 46.6348V43.3418H109.24C109.022 43.8418 108.693 44.3145 108.256 44.7598C107.818 45.2051 107.256 45.5684 106.568 45.8496C105.881 46.1309 105.061 46.2715 104.108 46.2715C102.756 46.2715 101.525 45.959 100.416 45.334C99.3145 44.7012 98.4356 43.7363 97.7794 42.4394C97.1309 41.1348 96.8067 39.4863 96.8067 37.4941C96.8067 35.4551 97.1387 33.7519 97.8028 32.3848C98.4669 31.0176 99.3497 29.9941 100.451 29.3144C101.561 28.6347 102.775 28.2949 104.096 28.2949C105.104 28.2949 105.947 28.4668 106.627 28.8105C107.307 29.1465 107.854 29.5683 108.268 30.0762C108.69 30.5762 109.014 31.0683 109.24 31.5527H109.428V28.5293H114.385V46.7051C114.385 48.2363 114.01 49.5176 113.26 50.5488C112.51 51.5801 111.471 52.3535 110.143 52.8691C108.822 53.3926 107.303 53.6543 105.584 53.6543ZM105.69 42.5215C106.494 42.5215 107.174 42.3223 107.729 41.9238C108.291 41.5176 108.721 40.9394 109.018 40.1894C109.322 39.4316 109.475 38.5254 109.475 37.4707C109.475 36.416 109.326 35.5019 109.029 34.7285C108.733 33.9473 108.303 33.3418 107.74 32.9121C107.178 32.4824 106.494 32.2676 105.69 32.2676C104.869 32.2676 104.178 32.4902 103.615 32.9355C103.053 33.373 102.627 33.9824 102.338 34.7637C102.049 35.5449 101.904 36.4473 101.904 37.4707C101.904 38.5098 102.049 39.4082 102.338 40.166C102.635 40.916 103.061 41.498 103.615 41.9121C104.178 42.3184 104.869 42.5215 105.69 42.5215ZM126.561 46.8809C124.709 46.8809 123.115 46.5059 121.779 45.7559C120.451 44.998 119.428 43.9277 118.709 42.5449C117.99 41.1543 117.631 39.5098 117.631 37.6113C117.631 35.7598 117.99 34.1348 118.709 32.7363C119.428 31.3379 120.44 30.248 121.744 29.4668C123.057 28.6855 124.596 28.2949 126.361 28.2949C127.549 28.2949 128.654 28.4863 129.678 28.8691C130.709 29.2441 131.608 29.8105 132.373 30.5683C133.147 31.3262 133.748 32.2793 134.178 33.4277C134.608 34.5683 134.822 35.9043 134.822 37.4355V38.8066H119.623V35.7129H130.123C130.123 34.9941 129.967 34.3574 129.654 33.8027C129.342 33.248 128.908 32.8144 128.354 32.5019C127.807 32.1816 127.17 32.0215 126.443 32.0215C125.686 32.0215 125.014 32.1973 124.428 32.5488C123.85 32.8926 123.397 33.3574 123.068 33.9433C122.74 34.5215 122.572 35.166 122.565 35.8769V38.8184C122.565 39.709 122.729 40.4785 123.057 41.1269C123.393 41.7754 123.865 42.2754 124.475 42.6269C125.084 42.9785 125.807 43.1543 126.643 43.1543C127.197 43.1543 127.705 43.0762 128.166 42.9199C128.627 42.7637 129.022 42.5293 129.35 42.2168C129.678 41.9043 129.928 41.5215 130.1 41.0684L134.717 41.373C134.483 42.4824 134.002 43.4512 133.276 44.2793C132.557 45.0996 131.627 45.7402 130.486 46.2012C129.354 46.6543 128.045 46.8809 126.561 46.8809ZM143.072 36.123V46.5293H138.08V28.5293H142.838V31.7051H143.049C143.447 30.6582 144.115 29.8301 145.053 29.2207C145.99 28.6035 147.127 28.2949 148.463 28.2949C149.713 28.2949 150.803 28.5683 151.733 29.1152C152.662 29.6621 153.385 30.4433 153.901 31.459C154.416 32.4668 154.674 33.6699 154.674 35.0683V46.5293H149.682V35.959C149.69 34.8574 149.408 33.998 148.838 33.3808C148.268 32.7558 147.483 32.4433 146.483 32.4433C145.811 32.4433 145.217 32.5879 144.701 32.8769C144.193 33.166 143.795 33.5879 143.506 34.1426C143.225 34.6894 143.08 35.3496 143.072 36.123ZM171.414 22.5293V46.5293H166.34V22.5293H171.414ZM180.487 36.123V46.5293H175.495V28.5293H180.253V31.7051H180.464C180.862 30.6582 181.53 29.8301 182.468 29.2207C183.405 28.6035 184.542 28.2949 185.878 28.2949C187.128 28.2949 188.218 28.5683 189.148 29.1152C190.077 29.6621 190.8 30.4433 191.316 31.459C191.831 32.4668 192.089 33.6699 192.089 35.0683V46.5293H187.097V35.959C187.105 34.8574 186.823 33.998 186.253 33.3808C185.683 32.7558 184.898 32.4433 183.898 32.4433C183.226 32.4433 182.632 32.5879 182.116 32.8769C181.609 33.166 181.21 33.5879 180.921 34.1426C180.64 34.6894 180.495 35.3496 180.487 36.123ZM205.703 28.5293V32.2793H194.594V28.5293H205.703ZM197.137 46.5293V27.2285C197.137 25.9238 197.391 24.8418 197.899 23.9824C198.414 23.123 199.117 22.4785 200.008 22.0488C200.899 21.6191 201.91 21.4043 203.043 21.4043C203.809 21.4043 204.508 21.4629 205.141 21.5801C205.781 21.6972 206.258 21.8027 206.571 21.8965L205.68 25.6465C205.485 25.584 205.242 25.5254 204.953 25.4707C204.672 25.416 204.383 25.3886 204.086 25.3886C203.352 25.3886 202.84 25.5605 202.551 25.9043C202.262 26.2402 202.117 26.7129 202.117 27.3222V46.5293H197.137ZM216.241 46.8809C214.421 46.8809 212.847 46.4941 211.519 45.7207C210.198 44.9395 209.179 43.8535 208.46 42.4629C207.741 41.0644 207.382 39.4434 207.382 37.5996C207.382 35.7402 207.741 34.1152 208.46 32.7246C209.179 31.3262 210.198 30.2402 211.519 29.4668C212.847 28.6855 214.421 28.2949 216.241 28.2949C218.062 28.2949 219.632 28.6855 220.952 29.4668C222.28 30.2402 223.304 31.3262 224.023 32.7246C224.741 34.1152 225.101 35.7402 225.101 37.5996C225.101 39.4434 224.741 41.0644 224.023 42.4629C223.304 43.8535 222.28 44.9395 220.952 45.7207C219.632 46.4941 218.062 46.8809 216.241 46.8809ZM216.265 43.0137C217.093 43.0137 217.784 42.7793 218.339 42.3105C218.894 41.834 219.312 41.1855 219.593 40.3652C219.882 39.5449 220.027 38.6113 220.027 37.5644C220.027 36.5176 219.882 35.584 219.593 34.7637C219.312 33.9433 218.894 33.2949 218.339 32.8183C217.784 32.3418 217.093 32.1035 216.265 32.1035C215.429 32.1035 214.726 32.3418 214.155 32.8183C213.593 33.2949 213.167 33.9433 212.878 34.7637C212.597 35.584 212.456 36.5176 212.456 37.5644C212.456 38.6113 212.597 39.5449 212.878 40.3652C213.167 41.1855 213.593 41.834 214.155 42.3105C214.726 42.7793 215.429 43.0137 216.265 43.0137ZM228.347 46.5293V28.5293H233.187V31.6699H233.374C233.702 30.5527 234.253 29.709 235.027 29.1387C235.8 28.5605 236.691 28.2715 237.698 28.2715C237.948 28.2715 238.218 28.2871 238.507 28.3183C238.796 28.3496 239.05 28.3926 239.269 28.4472V32.8769C239.034 32.8066 238.71 32.7441 238.296 32.6894C237.882 32.6348 237.503 32.6074 237.159 32.6074C236.425 32.6074 235.769 32.7676 235.191 33.0879C234.62 33.4004 234.167 33.8379 233.831 34.4004C233.503 34.9629 233.339 35.6113 233.339 36.3457V46.5293H228.347ZM241.85 46.5293V28.5293H246.608V31.7051H246.819C247.194 30.6504 247.819 29.8183 248.694 29.209C249.569 28.5996 250.615 28.2949 251.834 28.2949C253.069 28.2949 254.119 28.6035 254.987 29.2207C255.854 29.8301 256.432 30.6582 256.721 31.7051H256.908C257.276 30.6738 257.94 29.8496 258.901 29.2324C259.869 28.6074 261.014 28.2949 262.334 28.2949C264.014 28.2949 265.377 28.8301 266.424 29.9004C267.479 30.9629 268.006 32.4707 268.006 34.4238V46.5293H263.026V35.4082C263.026 34.4082 262.76 33.6582 262.229 33.1582C261.698 32.6582 261.033 32.4082 260.237 32.4082C259.33 32.4082 258.623 32.6973 258.115 33.2754C257.608 33.8457 257.354 34.5996 257.354 35.5371V46.5293H252.514V35.3027C252.514 34.4199 252.26 33.7168 251.752 33.1933C251.252 32.6699 250.592 32.4082 249.772 32.4082C249.217 32.4082 248.717 32.5488 248.272 32.8301C247.834 33.1035 247.487 33.4902 247.229 33.9902C246.971 34.4824 246.842 35.0605 246.842 35.7246V46.5293H241.85ZM277.082 46.8691C275.934 46.8691 274.91 46.6699 274.012 46.2715C273.114 45.8652 272.403 45.2676 271.879 44.4785C271.364 43.6816 271.106 42.6894 271.106 41.5019C271.106 40.5019 271.289 39.6621 271.657 38.9824C272.024 38.3027 272.524 37.7559 273.157 37.3418C273.789 36.9277 274.508 36.6152 275.313 36.4043C276.125 36.1933 276.977 36.0449 277.867 35.959C278.914 35.8496 279.758 35.748 280.399 35.6543C281.039 35.5527 281.504 35.4043 281.793 35.209C282.082 35.0137 282.227 34.7246 282.227 34.3418V34.2715C282.227 33.5293 281.992 32.9551 281.524 32.5488C281.063 32.1426 280.407 31.9394 279.555 31.9394C278.657 31.9394 277.942 32.1387 277.41 32.5371C276.879 32.9277 276.528 33.4199 276.356 34.0137L271.739 33.6387C271.973 32.5449 272.434 31.5996 273.121 30.8027C273.809 29.998 274.696 29.3808 275.782 28.9512C276.875 28.5137 278.141 28.2949 279.578 28.2949C280.578 28.2949 281.535 28.4121 282.449 28.6465C283.371 28.8808 284.188 29.2441 284.899 29.7363C285.617 30.2285 286.184 30.8613 286.598 31.6347C287.012 32.4004 287.219 33.3183 287.219 34.3887V46.5293H282.485V44.0332H282.344C282.055 44.5957 281.668 45.0918 281.184 45.5215C280.699 45.9434 280.117 46.2754 279.438 46.5176C278.758 46.752 277.973 46.8691 277.082 46.8691ZM278.512 43.4238C279.246 43.4238 279.895 43.2793 280.457 42.9902C281.02 42.6934 281.461 42.2949 281.782 41.7949C282.102 41.2949 282.262 40.7285 282.262 40.0957V38.1855C282.106 38.2871 281.891 38.3809 281.617 38.4668C281.352 38.5449 281.051 38.6191 280.715 38.6894C280.379 38.7519 280.043 38.8105 279.707 38.8652C279.371 38.9121 279.067 38.9551 278.793 38.9941C278.207 39.0801 277.696 39.2168 277.258 39.4043C276.821 39.5918 276.481 39.8457 276.239 40.166C275.996 40.4785 275.875 40.8691 275.875 41.3379C275.875 42.0176 276.121 42.5371 276.614 42.8965C277.114 43.248 277.746 43.4238 278.512 43.4238ZM300.666 28.5293V32.2793H289.826V28.5293H300.666ZM292.287 24.2168H297.28V40.998C297.28 41.459 297.35 41.8184 297.491 42.0762C297.631 42.3262 297.826 42.5019 298.076 42.6035C298.334 42.7051 298.631 42.7559 298.967 42.7559C299.201 42.7559 299.436 42.7363 299.67 42.6973C299.905 42.6504 300.084 42.6152 300.209 42.5918L300.994 46.3066C300.744 46.3848 300.393 46.4746 299.94 46.5762C299.487 46.6855 298.936 46.752 298.287 46.7754C297.084 46.8223 296.03 46.6621 295.123 46.2949C294.225 45.9277 293.526 45.3574 293.026 44.584C292.526 43.8105 292.28 42.834 292.287 41.6543V24.2168ZM303.918 46.5293V28.5293H308.91V46.5293H303.918ZM306.426 26.209C305.684 26.209 305.047 25.9629 304.516 25.4707C303.992 24.9707 303.731 24.373 303.731 23.6777C303.731 22.9902 303.992 22.4004 304.516 21.9082C305.047 21.4082 305.684 21.1582 306.426 21.1582C307.168 21.1582 307.801 21.4082 308.325 21.9082C308.856 22.4004 309.121 22.9902 309.121 23.6777C309.121 24.373 308.856 24.9707 308.325 25.4707C307.801 25.9629 307.168 26.209 306.426 26.209ZM321.042 46.8809C319.222 46.8809 317.648 46.4941 316.32 45.7207C314.999 44.9395 313.98 43.8535 313.261 42.4629C312.542 41.0644 312.183 39.4434 312.183 37.5996C312.183 35.7402 312.542 34.1152 313.261 32.7246C313.98 31.3262 314.999 30.2402 316.32 29.4668C317.648 28.6855 319.222 28.2949 321.042 28.2949C322.863 28.2949 324.433 28.6855 325.753 29.4668C327.081 30.2402 328.105 31.3262 328.824 32.7246C329.542 34.1152 329.902 35.7402 329.902 37.5996C329.902 39.4434 329.542 41.0644 328.824 42.4629C328.105 43.8535 327.081 44.9395 325.753 45.7207C324.433 46.4941 322.863 46.8809 321.042 46.8809ZM321.066 43.0137C321.894 43.0137 322.585 42.7793 323.14 42.3105C323.695 41.834 324.113 41.1855 324.394 40.3652C324.683 39.5449 324.827 38.6113 324.827 37.5644C324.827 36.5176 324.683 35.584 324.394 34.7637C324.113 33.9433 323.695 33.2949 323.14 32.8183C322.585 32.3418 321.894 32.1035 321.066 32.1035C320.23 32.1035 319.527 32.3418 318.956 32.8183C318.394 33.2949 317.968 33.9433 317.679 34.7637C317.398 35.584 317.257 36.5176 317.257 37.5644C317.257 38.6113 317.398 39.5449 317.679 40.3652C317.968 41.1855 318.394 41.834 318.956 42.3105C319.527 42.7793 320.23 43.0137 321.066 43.0137ZM338.14 36.123V46.5293H333.148V28.5293H337.906V31.7051H338.117C338.515 30.6582 339.183 29.8301 340.12 29.2207C341.058 28.6035 342.195 28.2949 343.531 28.2949C344.781 28.2949 345.87 28.5683 346.8 29.1152C347.73 29.6621 348.453 30.4433 348.968 31.459C349.484 32.4668 349.742 33.6699 349.742 35.0683V46.5293H344.749V35.959C344.757 34.8574 344.476 33.998 343.906 33.3808C343.335 32.7558 342.55 32.4433 341.55 32.4433C340.878 32.4433 340.285 32.5879 339.769 32.8769C339.261 33.166 338.863 33.5879 338.574 34.1426C338.292 34.6894 338.148 35.3496 338.14 36.123Z" fill="white"/>
<rect x="570" y="-0.458984" width="150" height="124" fill="#4E8D7C"/>
<path fill-rule="evenodd" clip-rule="evenodd" d="M513.764 0H0V124H369.291C370.944 119.537 373.226 114.443 376.072 108.987C377.222 106.76 378.468 104.534 379.789 102.201C385.251 103.367 393.288 104.003 401.044 103.844C405.646 103.738 410.009 103.367 413.659 102.572C415.484 102.201 417.11 101.671 418.538 100.929C420.006 100.187 421.513 99.2854 422.585 96.8999V96.8469C423.537 94.6204 423.378 91.7578 422.743 89.8494C422.109 87.941 421.196 86.5627 420.125 85.2374C418.023 82.5338 415.206 80.1483 412.032 77.8158C408.343 75.1122 404.217 72.5677 400.409 70.6063C406.042 62.8666 412.112 54.9149 418.578 47.0162C423.497 48.7126 429.765 50.621 436.31 52.2113C442.181 53.5896 448.092 54.6498 453.17 54.7028C458.287 54.8089 462.77 54.6498 465.983 50.2499C467.451 48.2885 468.205 45.3198 468.007 42.6693C467.808 40.0717 466.935 37.8982 465.825 35.8838C463.603 31.961 460.231 28.5152 456.106 25.3345C452.456 22.5249 448.251 20.0334 443.768 18.125C449.124 12.4528 454.519 6.99261 459.914 1.79749C468.522 4.07698 478.995 6.19744 488.199 7.36369C493.832 8.10585 498.989 8.47693 503.075 8.21187C505.098 8.10585 506.883 7.84079 508.51 7.31067C510.096 6.72755 511.921 6.0384 513.032 3.01675C513.388 2.04266 513.628 1.02742 513.764 0ZM412.298 124C412.802 123.612 413.309 123.22 413.818 122.822C433.494 107.449 456.106 85.3434 476.932 62.0714C495.856 40.9254 513.307 18.8165 525.771 0H535.176C535.055 0.19243 534.933 0.385175 534.811 0.578228C530.526 7.36369 525.568 14.5732 520.093 22.1008C523.703 22.3129 527.67 21.8888 531.716 20.5635C538.936 18.178 545.006 13.513 548.814 8.3709C550.858 5.55393 552.201 2.72137 552.87 0H570V124H479.911C487.289 116.945 494.334 109.685 500.893 102.519C514.024 88.153 525.211 74.211 533.224 63.1317C537.231 57.6185 540.444 52.8474 542.705 49.1367C544.209 46.7041 545.274 44.4122 545.795 43.2901C546.058 42.7249 546.183 42.4564 546.156 42.6163C547.069 38.4814 547.822 34.6115 548.417 31.0068C547.426 32.3321 546.394 33.7104 545.244 34.9826C539.923 40.9982 534.356 47.4059 528.594 54.0368C508.624 77.0216 486.323 102.688 463.882 124H447.083C447.68 122.504 447.973 121 447.973 119.536C447.973 116.09 446.307 112.379 442.896 109.093C437.216 114.405 431.604 119.404 426.124 124H412.298ZM428.654 34.9296C431.352 31.8019 434.089 28.7273 436.866 25.6526C442.459 27.296 448.132 30.2646 452.535 33.6573C456.145 36.3609 458.922 39.4356 460.112 41.609C460.707 42.6693 460.866 43.3584 460.906 43.5705C460.747 43.7295 457.692 45.2668 453.289 45.1608C448.846 45.1078 443.213 44.1536 437.58 42.8283C433.216 41.7681 428.852 40.4958 424.965 39.2765C426.194 37.7926 427.424 36.3617 428.653 34.9308L428.654 34.9296ZM487.802 62.2305C497.005 51.6812 505.772 40.9729 513.667 30.6357C517.951 34.3995 520.053 38.8525 520.053 43.3584C520.053 48.0234 517.792 52.6884 513.191 56.5052C508.589 60.322 501.885 62.9196 494.427 62.9196C492.126 62.9196 489.904 62.6546 487.802 62.2305ZM453.051 99.3384C462.453 90.0614 471.855 80.1483 480.939 69.9701C485.144 73.5219 487.128 77.6038 487.128 81.4206C487.128 85.5555 484.787 90.0084 479.868 93.7192C474.949 97.43 467.729 99.9216 459.716 99.9216C457.415 99.9216 455.193 99.7095 453.051 99.3384ZM385.041 93.4012C388.084 88.4711 391.42 83.435 395.014 78.2399C399.1 80.0423 404.336 83.0109 408.581 86.1386C411.477 88.2591 413.937 90.4855 415.246 92.1819C415.263 92.2056 415.265 92.2081 415.265 92.2131C415.266 92.2193 415.263 92.2292 415.285 92.2879C415.166 92.3321 415.043 92.3793 414.914 92.4284C414.271 92.6738 413.5 92.9683 412.508 93.1891C409.454 93.8252 405.328 94.1963 400.964 94.3024C395.494 94.3554 389.607 93.9843 385.041 93.4012Z" fill="#4E8D7C"/>
</g>
<rect x="-722.923" y="-3339.92" width="1445.85" height="3465.85" stroke="black" stroke-width="5.84653"/>
<defs>
<clipPath id="clip0_0_1">
<rect x="-720" y="-3337" width="1440" height="3460" fill="white"/>
</clipPath>
</defs>
</svg>
