<svg width="570" height="123" viewBox="0 0 570 123" fill="none" xmlns="http://www.w3.org/2000/svg">
<rect width="570" height="123" fill="#F5F5F5"/>
<g clip-path="url(#clip0_0_1)">
<rect x="-150" y="-3337" width="1440" height="3460" fill="white"/>
<rect width="1440" height="600" transform="translate(-150 -476.475)" fill="#9DDCCD" fill-opacity="0.85"/>
<path d="M44.5677 34.9902C44.5677 37.6074 44.0716 39.834 43.0794 41.6699C42.095 43.5059 40.7512 44.9082 39.0481 45.877C37.3528 46.8379 35.4465 47.3184 33.3294 47.3184C31.1965 47.3184 29.2825 46.834 27.5872 45.8652C25.8919 44.8965 24.552 43.4941 23.5676 41.6582C22.5833 39.8223 22.0911 37.5996 22.0911 34.9902C22.0911 32.373 22.5833 30.1465 23.5676 28.3105C24.552 26.4746 25.8919 25.0761 27.5872 24.1152C29.2825 23.1465 31.1965 22.6621 33.3294 22.6621C35.4465 22.6621 37.3528 23.1465 39.0481 24.1152C40.7512 25.0761 42.095 26.4746 43.0794 28.3105C44.0716 30.1465 44.5677 32.373 44.5677 34.9902ZM39.4231 34.9902C39.4231 33.2949 39.1692 31.8652 38.6614 30.7012C38.1614 29.5371 37.4544 28.6543 36.5403 28.0527C35.6262 27.4512 34.5559 27.1504 33.3294 27.1504C32.1028 27.1504 31.0325 27.4512 30.1184 28.0527C29.2044 28.6543 28.4934 29.5371 27.9856 30.7012C27.4856 31.8652 27.2356 33.2949 27.2356 34.9902C27.2356 36.6855 27.4856 38.1152 27.9856 39.2793C28.4934 40.4434 29.2044 41.3262 30.1184 41.9277C31.0325 42.5293 32.1028 42.8301 33.3294 42.8301C34.5559 42.8301 35.6262 42.5293 36.5403 41.9277C37.4544 41.3262 38.1614 40.4434 38.6614 39.2793C39.1692 38.1152 39.4231 36.6855 39.4231 34.9902ZM57.9124 28.9902V32.7402H46.803V28.9902H57.9124ZM49.346 46.9902V27.6894C49.346 26.3847 49.5999 25.3027 50.1077 24.4433C50.6233 23.584 51.3264 22.9394 52.2171 22.5097C53.1077 22.0801 54.1194 21.8652 55.2522 21.8652C56.0179 21.8652 56.7171 21.9238 57.3499 22.041C57.9905 22.1582 58.4671 22.2636 58.7796 22.3574L57.889 26.1074C57.6936 26.0449 57.4515 25.9863 57.1624 25.9316C56.8811 25.8769 56.5921 25.8496 56.2952 25.8496C55.5608 25.8496 55.0491 26.0215 54.76 26.3652C54.471 26.7012 54.3265 27.1738 54.3265 27.7832V46.9902H49.346ZM70.6419 28.9902V32.7402H59.5325V28.9902H70.6419ZM62.0755 46.9902V27.6894C62.0755 26.3847 62.3294 25.3027 62.8372 24.4433C63.3528 23.584 64.056 22.9394 64.9466 22.5097C65.8372 22.0801 66.8489 21.8652 67.9817 21.8652C68.7474 21.8652 69.4466 21.9238 70.0794 22.041C70.72 22.1582 71.1966 22.2636 71.5091 22.3574L70.6185 26.1074C70.4231 26.0449 70.181 25.9863 69.8919 25.9316C69.6106 25.8769 69.3216 25.8496 69.0247 25.8496C68.2903 25.8496 67.7786 26.0215 67.4895 26.3652C67.2005 26.7012 67.056 27.1738 67.056 27.7832V46.9902H62.0755ZM73.6917 46.9902V28.9902H78.6839V46.9902H73.6917ZM76.1995 26.6699C75.4573 26.6699 74.8206 26.4238 74.2894 25.9316C73.7659 25.4316 73.5042 24.834 73.5042 24.1386C73.5042 23.4511 73.7659 22.8613 74.2894 22.3691C74.8206 21.8691 75.4573 21.6191 76.1995 21.6191C76.9417 21.6191 77.5745 21.8691 78.098 22.3691C78.6292 22.8613 78.8948 23.4511 78.8948 24.1386C78.8948 24.834 78.6292 25.4316 78.098 25.9316C77.5745 26.4238 76.9417 26.6699 76.1995 26.6699ZM90.8157 47.3418C88.972 47.3418 87.3861 46.9512 86.0579 46.1699C84.7376 45.3809 83.722 44.2871 83.011 42.8887C82.3079 41.4902 81.9564 39.8809 81.9564 38.0605C81.9564 36.2168 82.3118 34.5996 83.0228 33.209C83.7415 31.8105 84.7611 30.7207 86.0814 29.9394C87.4017 29.1504 88.972 28.7558 90.7923 28.7558C92.3626 28.7558 93.7376 29.041 94.9173 29.6113C96.097 30.1816 97.0306 30.9824 97.7181 32.0137C98.4056 33.0449 98.7845 34.2558 98.8548 35.6465H94.1439C94.0111 34.748 93.6595 34.0254 93.0892 33.4785C92.5267 32.9238 91.7884 32.6465 90.8743 32.6465C90.1009 32.6465 89.4251 32.8574 88.847 33.2793C88.2767 33.6933 87.8314 34.2988 87.5111 35.0957C87.1907 35.8926 87.0306 36.8574 87.0306 37.9902C87.0306 39.1387 87.1868 40.1152 87.4993 40.9199C87.8196 41.7246 88.2689 42.3379 88.847 42.7598C89.4251 43.1816 90.1009 43.3926 90.8743 43.3926C91.4447 43.3926 91.9564 43.2754 92.4095 43.041C92.8704 42.8066 93.2493 42.4668 93.5462 42.0215C93.8509 41.5684 94.0501 41.0254 94.1439 40.3926H98.8548C98.7767 41.7676 98.4017 42.9785 97.7298 44.0254C97.0658 45.0645 96.1478 45.877 94.9759 46.4629C93.804 47.0488 92.4173 47.3418 90.8157 47.3418ZM110.254 47.3418C108.403 47.3418 106.809 46.9668 105.473 46.2168C104.145 45.459 103.121 44.3887 102.403 43.0059C101.684 41.6152 101.325 39.9707 101.325 38.0723C101.325 36.2207 101.684 34.5957 102.403 33.1973C103.121 31.7988 104.133 30.709 105.438 29.9277C106.75 29.1465 108.289 28.7558 110.055 28.7558C111.243 28.7558 112.348 28.9472 113.371 29.3301C114.403 29.7051 115.301 30.2715 116.067 31.0293C116.84 31.7871 117.442 32.7402 117.871 33.8887C118.301 35.0293 118.516 36.3652 118.516 37.8965V39.2676H103.317V36.1738H113.817C113.817 35.4551 113.66 34.8183 113.348 34.2637C113.035 33.709 112.602 33.2754 112.047 32.9629C111.5 32.6426 110.864 32.4824 110.137 32.4824C109.379 32.4824 108.707 32.6582 108.121 33.0098C107.543 33.3535 107.09 33.8183 106.762 34.4043C106.434 34.9824 106.266 35.6269 106.258 36.3379V39.2793C106.258 40.1699 106.422 40.9394 106.75 41.5879C107.086 42.2363 107.559 42.7363 108.168 43.0879C108.778 43.4394 109.5 43.6152 110.336 43.6152C110.891 43.6152 111.399 43.5371 111.86 43.3809C112.321 43.2246 112.715 42.9902 113.043 42.6777C113.371 42.3652 113.621 41.9824 113.793 41.5293L118.411 41.834C118.176 42.9434 117.696 43.9121 116.969 44.7402C116.25 45.5605 115.321 46.2012 114.18 46.6621C113.047 47.1152 111.739 47.3418 110.254 47.3418ZM137.544 47.3418C135.701 47.3418 134.115 46.9512 132.786 46.1699C131.466 45.3809 130.451 44.2871 129.74 42.8887C129.036 41.4902 128.685 39.8809 128.685 38.0605C128.685 36.2168 129.04 34.5996 129.751 33.209C130.47 31.8105 131.49 30.7207 132.81 29.9394C134.13 29.1504 135.701 28.7558 137.521 28.7558C139.091 28.7558 140.466 29.041 141.646 29.6113C142.826 30.1816 143.759 30.9824 144.447 32.0137C145.134 33.0449 145.513 34.2558 145.583 35.6465H140.872C140.74 34.748 140.388 34.0254 139.818 33.4785C139.255 32.9238 138.517 32.6465 137.603 32.6465C136.829 32.6465 136.154 32.8574 135.576 33.2793C135.005 33.6933 134.56 34.2988 134.24 35.0957C133.919 35.8926 133.759 36.8574 133.759 37.9902C133.759 39.1387 133.915 40.1152 134.228 40.9199C134.548 41.7246 134.997 42.3379 135.576 42.7598C136.154 43.1816 136.829 43.3926 137.603 43.3926C138.173 43.3926 138.685 43.2754 139.138 43.041C139.599 42.8066 139.978 42.4668 140.275 42.0215C140.579 41.5684 140.779 41.0254 140.872 40.3926H145.583C145.505 41.7676 145.13 42.9785 144.458 44.0254C143.794 45.0645 142.876 45.877 141.704 46.4629C140.533 47.0488 139.146 47.3418 137.544 47.3418ZM153.912 47.3301C152.764 47.3301 151.741 47.1309 150.842 46.7324C149.944 46.3262 149.233 45.7285 148.709 44.9395C148.194 44.1426 147.936 43.1504 147.936 41.9629C147.936 40.9629 148.12 40.123 148.487 39.4434C148.854 38.7637 149.354 38.2168 149.987 37.8027C150.62 37.3887 151.338 37.0762 152.143 36.8652C152.955 36.6543 153.807 36.5058 154.698 36.4199C155.745 36.3105 156.588 36.209 157.229 36.1152C157.87 36.0137 158.334 35.8652 158.623 35.6699C158.913 35.4746 159.057 35.1855 159.057 34.8027V34.7324C159.057 33.9902 158.823 33.416 158.354 33.0098C157.893 32.6035 157.237 32.4004 156.385 32.4004C155.487 32.4004 154.772 32.5996 154.241 32.998C153.709 33.3887 153.358 33.8808 153.186 34.4746L148.569 34.0996C148.803 33.0058 149.264 32.0605 149.952 31.2637C150.639 30.459 151.526 29.8418 152.612 29.4121C153.705 28.9746 154.971 28.7558 156.409 28.7558C157.409 28.7558 158.366 28.873 159.28 29.1074C160.202 29.3418 161.018 29.7051 161.729 30.1972C162.448 30.6894 163.014 31.3222 163.428 32.0957C163.842 32.8613 164.049 33.7793 164.049 34.8496V46.9902H159.315V44.4941H159.174C158.885 45.0566 158.498 45.5527 158.014 45.9824C157.53 46.4043 156.948 46.7363 156.268 46.9785C155.588 47.2129 154.803 47.3301 153.912 47.3301ZM155.342 43.8848C156.077 43.8848 156.725 43.7402 157.288 43.4512C157.85 43.1543 158.291 42.7559 158.612 42.2559C158.932 41.7559 159.092 41.1894 159.092 40.5566V38.6465C158.936 38.748 158.721 38.8418 158.448 38.9277C158.182 39.0059 157.881 39.0801 157.545 39.1504C157.209 39.2129 156.873 39.2715 156.538 39.3262C156.202 39.373 155.897 39.416 155.623 39.4551C155.037 39.541 154.526 39.6777 154.088 39.8652C153.651 40.0527 153.311 40.3066 153.069 40.6269C152.827 40.9394 152.705 41.3301 152.705 41.7988C152.705 42.4785 152.952 42.998 153.444 43.3574C153.944 43.709 154.577 43.8848 155.342 43.8848ZM177.497 28.9902V32.7402H166.657V28.9902H177.497ZM169.118 24.6777H174.11V41.459C174.11 41.9199 174.18 42.2793 174.321 42.5371C174.461 42.7871 174.657 42.9629 174.907 43.0644C175.164 43.166 175.461 43.2168 175.797 43.2168C176.032 43.2168 176.266 43.1973 176.5 43.1582C176.735 43.1113 176.914 43.0762 177.039 43.0527L177.825 46.7676C177.575 46.8457 177.223 46.9355 176.77 47.0371C176.317 47.1465 175.766 47.2129 175.118 47.2363C173.914 47.2832 172.86 47.123 171.954 46.7559C171.055 46.3887 170.356 45.8184 169.856 45.0449C169.356 44.2715 169.11 43.2949 169.118 42.1152V24.6777ZM188.758 47.3418C186.907 47.3418 185.313 46.9668 183.977 46.2168C182.649 45.459 181.625 44.3887 180.907 43.0059C180.188 41.6152 179.829 39.9707 179.829 38.0723C179.829 36.2207 180.188 34.5957 180.907 33.1973C181.625 31.7988 182.637 30.709 183.942 29.9277C185.254 29.1465 186.793 28.7558 188.559 28.7558C189.747 28.7558 190.852 28.9472 191.875 29.3301C192.907 29.7051 193.805 30.2715 194.571 31.0293C195.344 31.7871 195.946 32.7402 196.375 33.8887C196.805 35.0293 197.02 36.3652 197.02 37.8965V39.2676H181.821V36.1738H192.321C192.321 35.4551 192.164 34.8183 191.852 34.2637C191.539 33.709 191.106 33.2754 190.551 32.9629C190.004 32.6426 189.368 32.4824 188.641 32.4824C187.883 32.4824 187.211 32.6582 186.625 33.0098C186.047 33.3535 185.594 33.8183 185.266 34.4043C184.938 34.9824 184.77 35.6269 184.762 36.3379V39.2793C184.762 40.1699 184.926 40.9394 185.254 41.5879C185.59 42.2363 186.063 42.7363 186.672 43.0879C187.282 43.4394 188.004 43.6152 188.84 43.6152C189.395 43.6152 189.903 43.5371 190.364 43.3809C190.825 43.2246 191.219 42.9902 191.547 42.6777C191.875 42.3652 192.125 41.9824 192.297 41.5293L196.914 41.834C196.68 42.9434 196.2 43.9121 195.473 44.7402C194.754 45.5605 193.825 46.2012 192.684 46.6621C191.551 47.1152 190.243 47.3418 188.758 47.3418ZM200.278 46.9902V28.9902H205.118V32.1308H205.305C205.633 31.0137 206.184 30.1699 206.957 29.5996C207.731 29.0215 208.622 28.7324 209.629 28.7324C209.879 28.7324 210.149 28.748 210.438 28.7793C210.727 28.8105 210.981 28.8535 211.2 28.9082V33.3379C210.965 33.2676 210.641 33.2051 210.227 33.1504C209.813 33.0957 209.434 33.0683 209.09 33.0683C208.356 33.0683 207.7 33.2285 207.122 33.5488C206.551 33.8613 206.098 34.2988 205.762 34.8613C205.434 35.4238 205.27 36.0723 205.27 36.8066V46.9902H200.278ZM213.781 46.9902V28.9902H218.773V46.9902H213.781ZM216.289 26.6699C215.546 26.6699 214.91 26.4238 214.378 25.9316C213.855 25.4316 213.593 24.834 213.593 24.1386C213.593 23.4511 213.855 22.8613 214.378 22.3691C214.91 21.8691 215.546 21.6191 216.289 21.6191C217.031 21.6191 217.664 21.8691 218.187 22.3691C218.718 22.8613 218.984 23.4511 218.984 24.1386C218.984 24.834 218.718 25.4316 218.187 25.9316C217.664 26.4238 217.031 26.6699 216.289 26.6699ZM227.764 36.584V46.9902H222.772V28.9902H227.53V32.166H227.741C228.139 31.1191 228.807 30.291 229.745 29.6816C230.682 29.0644 231.819 28.7558 233.155 28.7558C234.405 28.7558 235.495 29.0293 236.424 29.5762C237.354 30.123 238.077 30.9043 238.592 31.9199C239.108 32.9277 239.366 34.1308 239.366 35.5293V46.9902H234.374V36.4199C234.381 35.3183 234.1 34.459 233.53 33.8418C232.959 33.2168 232.174 32.9043 231.174 32.9043C230.502 32.9043 229.909 33.0488 229.393 33.3379C228.885 33.6269 228.487 34.0488 228.198 34.6035C227.916 35.1504 227.772 35.8105 227.764 36.584ZM251.41 54.1152C249.792 54.1152 248.406 53.8926 247.25 53.4473C246.101 53.0098 245.187 52.4121 244.507 51.6543C243.828 50.8965 243.386 50.0449 243.183 49.0996L247.8 48.4785C247.941 48.8379 248.164 49.1738 248.468 49.4863C248.773 49.7988 249.175 50.0488 249.675 50.2363C250.183 50.4316 250.8 50.5293 251.527 50.5293C252.613 50.5293 253.507 50.2637 254.21 49.7324C254.921 49.209 255.277 48.3301 255.277 47.0957V43.8027H255.066C254.847 44.3027 254.519 44.7754 254.082 45.2207C253.644 45.666 253.082 46.0293 252.394 46.3105C251.707 46.5918 250.886 46.7324 249.933 46.7324C248.582 46.7324 247.351 46.4199 246.242 45.7949C245.14 45.1621 244.261 44.1973 243.605 42.9004C242.957 41.5957 242.632 39.9473 242.632 37.9551C242.632 35.916 242.964 34.2129 243.628 32.8457C244.292 31.4785 245.175 30.4551 246.277 29.7754C247.386 29.0957 248.601 28.7558 249.921 28.7558C250.929 28.7558 251.773 28.9277 252.453 29.2715C253.132 29.6074 253.679 30.0293 254.093 30.5371C254.515 31.0371 254.839 31.5293 255.066 32.0137H255.253V28.9902H260.21V47.166C260.21 48.6973 259.835 49.9785 259.085 51.0098C258.335 52.041 257.296 52.8145 255.968 53.3301C254.648 53.8535 253.128 54.1152 251.41 54.1152ZM251.515 42.9824C252.32 42.9824 253 42.7832 253.554 42.3848C254.117 41.9785 254.546 41.4004 254.843 40.6504C255.148 39.8926 255.3 38.9863 255.3 37.9316C255.3 36.8769 255.152 35.9629 254.855 35.1894C254.558 34.4082 254.128 33.8027 253.566 33.373C253.003 32.9433 252.32 32.7285 251.515 32.7285C250.695 32.7285 250.003 32.9512 249.441 33.3965C248.878 33.834 248.453 34.4433 248.164 35.2246C247.875 36.0058 247.73 36.9082 247.73 37.9316C247.73 38.9707 247.875 39.8691 248.164 40.6269C248.46 41.3769 248.886 41.959 249.441 42.373C250.003 42.7793 250.695 42.9824 251.515 42.9824Z" fill="white"/>
<path d="M50.1387 83.5273C50.089 83.0621 49.8795 82.6999 49.5102 82.4407C49.1444 82.1815 48.6686 82.0518 48.0826 82.0518C47.6707 82.0518 47.3174 82.114 47.0226 82.2383C46.7279 82.3626 46.5024 82.5312 46.3461 82.7443C46.1899 82.9574 46.11 83.2006 46.1064 83.4741C46.1064 83.7013 46.1579 83.8984 46.2609 84.0653C46.3674 84.2322 46.5112 84.3743 46.6924 84.4915C46.8735 84.6051 47.0741 84.701 47.2943 84.7791C47.5144 84.8572 47.7364 84.9229 47.9601 84.9762L48.9828 85.2319C49.3948 85.3278 49.7907 85.4574 50.1707 85.6207C50.5542 85.7841 50.8969 85.9901 51.1988 86.2386C51.5041 86.4872 51.7456 86.7873 51.9232 87.1388C52.1007 87.4904 52.1895 87.9023 52.1895 88.3746C52.1895 89.0138 52.0262 89.5767 51.6995 90.0632C51.3728 90.5462 50.9005 90.9244 50.2826 91.1978C49.6682 91.4677 48.9242 91.6026 48.0507 91.6026C47.2019 91.6026 46.4651 91.4712 45.8401 91.2085C45.2186 90.9457 44.7321 90.5621 44.3806 90.0579C44.0326 89.5536 43.8443 88.9393 43.8159 88.2148H45.7602C45.7886 88.5948 45.9058 88.9109 46.1117 89.163C46.3177 89.4151 46.5858 89.6033 46.9161 89.7276C47.2499 89.8519 47.6228 89.9141 48.0347 89.9141C48.4644 89.9141 48.8408 89.8501 49.1639 89.7223C49.4907 89.5909 49.7463 89.4098 49.931 89.179C50.1157 88.9446 50.2098 88.6712 50.2133 88.3587C50.2098 88.0746 50.1263 87.8402 49.963 87.6555C49.7996 87.4673 49.5706 87.3111 49.2758 87.1868C48.9846 87.0589 48.6437 86.9453 48.2531 86.8459L47.012 86.5263C46.1135 86.2955 45.4033 85.9457 44.8813 85.4769C44.3628 85.0046 44.1036 84.3778 44.1036 83.5966C44.1036 82.9538 44.2776 82.391 44.6256 81.908C44.9772 81.4251 45.4548 81.0504 46.0585 80.7841C46.6622 80.5142 47.3458 80.3793 48.1093 80.3793C48.8834 80.3793 49.5617 80.5142 50.1441 80.7841C50.73 81.0504 51.1899 81.4215 51.5237 81.8974C51.8575 82.3697 52.0297 82.913 52.0404 83.5273H50.1387ZM57.4883 91.5973C56.6679 91.5973 55.9595 91.4268 55.3629 91.0859C54.7699 90.7415 54.3135 90.255 53.9939 89.6264C53.6743 88.9943 53.5145 88.2504 53.5145 87.3945C53.5145 86.5529 53.6743 85.8143 53.9939 85.1786C54.3171 84.5394 54.7681 84.0423 55.3469 83.6871C55.9258 83.3285 56.6058 83.1491 57.3871 83.1491C57.8913 83.1491 58.3672 83.2308 58.8146 83.3942C59.2656 83.554 59.6633 83.8026 60.0078 84.1399C60.3558 84.4773 60.6292 84.907 60.8281 85.429C61.027 85.9474 61.1264 86.5653 61.1264 87.2827V87.8739H54.4201V86.5742H59.278C59.2745 86.2049 59.1946 85.8764 59.0383 85.5888C58.8821 85.2976 58.6637 85.0685 58.3831 84.9016C58.1062 84.7347 57.783 84.6513 57.4137 84.6513C57.0195 84.6513 56.6733 84.7472 56.375 84.9389C56.0767 85.1271 55.8441 85.3757 55.6772 85.6847C55.5138 85.9901 55.4304 86.3256 55.4268 86.6914V87.826C55.4268 88.3018 55.5138 88.7102 55.6878 89.0511C55.8618 89.3885 56.1051 89.6477 56.4176 89.8288C56.7301 90.0064 57.0959 90.0952 57.5149 90.0952C57.7954 90.0952 58.0493 90.0561 58.2766 89.978C58.5039 89.8963 58.701 89.7773 58.8679 89.6211C59.0348 89.4648 59.1608 89.2713 59.2461 89.0405L61.0465 89.2429C60.9329 89.7187 60.7162 90.1342 60.3966 90.4893C60.0806 90.8409 59.6758 91.1143 59.1822 91.3097C58.6885 91.5014 58.1239 91.5973 57.4883 91.5973ZM66.3799 91.5973C65.5596 91.5973 64.8511 91.4268 64.2545 91.0859C63.6615 90.7415 63.2052 90.255 62.8856 89.6264C62.5659 88.9943 62.4061 88.2504 62.4061 87.3945C62.4061 86.5529 62.5659 85.8143 62.8856 85.1786C63.2087 84.5394 63.6597 84.0423 64.2385 83.6871C64.8174 83.3285 65.4974 83.1491 66.2787 83.1491C66.7829 83.1491 67.2588 83.2308 67.7062 83.3942C68.1572 83.554 68.5549 83.8026 68.8994 84.1399C69.2474 84.4773 69.5209 84.907 69.7197 85.429C69.9186 85.9474 70.018 86.5653 70.018 87.2827V87.8739H63.3117V86.5742H68.1696C68.1661 86.2049 68.0862 85.8764 67.9299 85.5888C67.7737 85.2976 67.5553 85.0685 67.2748 84.9016C66.9978 84.7347 66.6746 84.6513 66.3053 84.6513C65.9111 84.6513 65.5649 84.7472 65.2666 84.9389C64.9683 85.1271 64.7357 85.3757 64.5688 85.6847C64.4054 85.9901 64.322 86.3256 64.3184 86.6914V87.826C64.3184 88.3018 64.4054 88.7102 64.5794 89.0511C64.7534 89.3885 64.9967 89.6477 65.3092 89.8288C65.6217 90.0064 65.9875 90.0952 66.4065 90.0952C66.687 90.0952 66.941 90.0561 67.1682 89.978C67.3955 89.8963 67.5926 89.7773 67.7595 89.6211C67.9264 89.4648 68.0525 89.2713 68.1377 89.0405L69.9381 89.2429C69.8245 89.7187 69.6079 90.1342 69.2883 90.4893C68.9722 90.8409 68.5674 91.1143 68.0738 91.3097C67.5802 91.5014 67.0155 91.5973 66.3799 91.5973ZM75.37 91.4375V83.2557H77.2131V84.6459H77.3089C77.4794 84.1772 77.7617 83.8114 78.1559 83.5486C78.5501 83.2823 79.0206 83.1491 79.5675 83.1491C80.1214 83.1491 80.5884 83.2841 80.9684 83.554C81.3519 83.8203 81.6218 84.1843 81.7781 84.6459H81.8633C82.0444 84.1914 82.3498 83.8292 82.7795 83.5593C83.2127 83.2859 83.7259 83.1491 84.3189 83.1491C85.0717 83.1491 85.6861 83.3871 86.1619 83.8629C86.6378 84.3388 86.8757 85.033 86.8757 85.9457V91.4375H84.9421V86.244C84.9421 85.7361 84.8072 85.3651 84.5373 85.1307C84.2674 84.8927 83.9371 84.7738 83.5465 84.7738C83.0813 84.7738 82.7173 84.9194 82.4545 85.2106C82.1953 85.4982 82.0657 85.8729 82.0657 86.3345V91.4375H80.1747V86.1641C80.1747 85.7415 80.0469 85.4041 79.7912 85.152C79.5391 84.8999 79.2088 84.7738 78.8004 84.7738C78.5234 84.7738 78.2713 84.8448 78.044 84.9869C77.8168 85.1253 77.6357 85.3224 77.5007 85.5781C77.3658 85.8303 77.2983 86.125 77.2983 86.4624V91.4375H75.37ZM92.4008 91.5973C91.6018 91.5973 90.9094 91.4215 90.3234 91.07C89.7375 90.7184 89.2829 90.2266 88.9598 89.5945C88.6402 88.9624 88.4804 88.2237 88.4804 87.3785C88.4804 86.5334 88.6402 85.793 88.9598 85.1573C89.2829 84.5217 89.7375 84.028 90.3234 83.6765C90.9094 83.3249 91.6018 83.1491 92.4008 83.1491C93.1999 83.1491 93.8923 83.3249 94.4783 83.6765C95.0642 84.028 95.517 84.5217 95.8366 85.1573C96.1597 85.793 96.3213 86.5334 96.3213 87.3785C96.3213 88.2237 96.1597 88.9624 95.8366 89.5945C95.517 90.2266 95.0642 90.7184 94.4783 91.07C93.8923 91.4215 93.1999 91.5973 92.4008 91.5973ZM92.4115 90.0526C92.8447 90.0526 93.207 89.9336 93.4981 89.6957C93.7893 89.4542 94.006 89.131 94.148 88.7262C94.2936 88.3214 94.3664 87.8704 94.3664 87.3732C94.3664 86.8725 94.2936 86.4197 94.148 86.0149C94.006 85.6065 93.7893 85.2816 93.4981 85.0401C93.207 84.7986 92.8447 84.6779 92.4115 84.6779C91.9676 84.6779 91.5983 84.7986 91.3035 85.0401C91.0124 85.2816 90.794 85.6065 90.6484 86.0149C90.5063 86.4197 90.4353 86.8725 90.4353 87.3732C90.4353 87.8704 90.5063 88.3214 90.6484 88.7262C90.794 89.131 91.0124 89.4542 91.3035 89.6957C91.5983 89.9336 91.9676 90.0526 92.4115 90.0526ZM97.9579 91.4375V83.2557H99.8276V84.6193H99.9128C100.062 84.147 100.318 83.783 100.68 83.5273C101.046 83.2681 101.463 83.1385 101.932 83.1385C102.038 83.1385 102.157 83.1438 102.289 83.1545C102.423 83.1616 102.535 83.174 102.624 83.1918V84.9655C102.542 84.9371 102.413 84.9123 102.235 84.891C102.061 84.8661 101.893 84.8537 101.729 84.8537C101.378 84.8537 101.062 84.93 100.781 85.0827C100.504 85.2319 100.286 85.4396 100.126 85.706C99.9661 85.9723 99.8862 86.2795 99.8862 86.6275V91.4375H97.9579ZM107.19 91.5973C106.37 91.5973 105.662 91.4268 105.065 91.0859C104.472 90.7415 104.016 90.255 103.696 89.6264C103.377 88.9943 103.217 88.2504 103.217 87.3945C103.217 86.5529 103.377 85.8143 103.696 85.1786C104.019 84.5394 104.47 84.0423 105.049 83.6871C105.628 83.3285 106.308 83.1491 107.089 83.1491C107.594 83.1491 108.069 83.2308 108.517 83.3942C108.968 83.554 109.366 83.8026 109.71 84.1399C110.058 84.4773 110.331 84.907 110.53 85.429C110.729 85.9474 110.829 86.5653 110.829 87.2827V87.8739H104.122V86.5742H108.98C108.977 86.2049 108.897 85.8764 108.741 85.5888C108.584 85.2976 108.366 85.0685 108.085 84.9016C107.808 84.7347 107.485 84.6513 107.116 84.6513C106.722 84.6513 106.375 84.7472 106.077 84.9389C105.779 85.1271 105.546 85.3757 105.379 85.6847C105.216 85.9901 105.133 86.3256 105.129 86.6914V87.826C105.129 88.3018 105.216 88.7102 105.39 89.0511C105.564 89.3885 105.807 89.6477 106.12 89.8288C106.432 90.0064 106.798 90.0952 107.217 90.0952C107.498 90.0952 107.752 90.0561 107.979 89.978C108.206 89.8963 108.403 89.7773 108.57 89.6211C108.737 89.4648 108.863 89.2713 108.948 89.0405L110.749 89.2429C110.635 89.7187 110.418 90.1342 110.099 90.4893C109.783 90.8409 109.378 91.1143 108.884 91.3097C108.391 91.5014 107.826 91.5973 107.19 91.5973ZM122.86 91.8317L121.763 90.745L125.05 87.4584H117.065V85.8711H125.05L121.763 82.5898L122.86 81.4979L128.027 86.6648L122.86 91.8317Z" fill="white"/>
<rect x="21.2037" y="69.7672" width="126.138" height="33.4501" rx="16.7251" stroke="white" stroke-width="1.55"/>
<path fill-rule="evenodd" clip-rule="evenodd" d="M383.715 0H503.334L441.503 52.9879L441.472 53.016C439.441 54.7723 436.645 55.3808 434.25 54.5873L351.455 27.6317L383.715 0ZM373.343 0H0V124H401.251L359.172 110.303C356.77 109.553 355.343 107.602 355.03 105.409L353.035 91.4465C346.845 88.7435 341.955 83.1358 340.52 74.1473C339.275 64.2833 342.979 56.4666 348.846 51.2888C347.676 50.3278 346.964 48.9631 346.753 47.4895L344.266 30.0794L344.377 30.0552C344.018 28.8152 344.045 27.4679 344.454 26.1837C344.863 24.8995 345.636 23.7362 346.675 22.8412L373.343 0ZM468.749 124L527.464 73.6855C529.514 71.9674 530.314 69.5318 530 67.3384L528.009 53.4035C533.084 48.2566 536.151 40.9035 535.04 31.8233C533.417 22.07 527.749 16.2922 520.787 13.9058C521.613 12.527 521.945 10.9374 521.724 9.41903L520.378 0H570V124H468.749ZM434.179 79.4943L352.551 52.9209L351.081 54.1807C350.162 54.9764 349.449 55.9831 349.014 57.1007C348.578 58.2183 348.435 59.408 348.599 60.5515C348.762 61.695 349.226 62.7525 349.945 63.619C350.664 64.4854 351.613 65.1306 352.697 65.4904L435.981 92.6013C440.726 94.1837 446.222 92.9879 450.243 89.4981L520.989 28.8732C525.01 25.3834 524.118 19.1459 519.373 17.5635L517.718 17.026L448.441 76.3911C444.421 79.8809 438.925 81.0768 434.179 79.4943ZM371.469 91.9375C367.634 93.1964 363.637 93.6298 359.75 93.2082L367.221 95.6463C369.192 100.243 372.1 104.325 375.774 107.649C379.448 110.972 383.812 113.47 388.608 114.994C398.967 118.354 410.497 117.701 421.02 113.158L439.791 119.265C444.536 120.847 450.032 119.651 454.053 116.162L470.01 102.484C481.177 102.327 492.216 98.0741 501.034 90.5321C505.124 87.0701 508.536 82.8728 511.068 78.1901C513.599 73.5073 515.198 68.4351 515.769 63.2755L521.808 58.0957C518.392 59.9898 514.674 61.1838 510.889 61.6023C507.143 61.9933 503.938 64.6694 502.808 68.3076C499.148 80.3414 486.935 87.2393 475.69 86.859C471.945 86.755 468.384 88.9433 466.867 92.3831C465.668 96.8638 463.284 101.024 459.973 104.412C456.663 107.799 452.553 110.283 448.091 111.593L448.022 111.608C447.406 111.813 446.849 111.934 446.292 112.055L446.153 112.085L446.153 112.085C445.527 112.221 444.97 112.342 444.404 112.395L444.335 112.41C439.779 113.062 435.229 112.463 431.179 110.677C427.129 108.891 423.735 105.988 421.367 102.283C418.988 99.6908 415.036 99.1374 411.545 100.816C401.015 105.934 387.695 104.591 380.92 94.8283C378.85 91.8863 375.097 90.724 371.469 91.9375Z" fill="#4E8D7C"/>
</g>
<rect x="-152.923" y="-3339.92" width="1445.85" height="3465.85" stroke="black" stroke-width="5.84653"/>
<defs>
<clipPath id="clip0_0_1">
<rect x="-150" y="-3337" width="1440" height="3460" fill="white"/>
</clipPath>
</defs>
</svg>
